PathFileType	4	(X/Y/Z)	D:\TRACE\v60_Jaco2_6-2-23\JustArmDRS_Motion1_4-platform.trc
DataRate	CameraRate	NumFrames	NumMarkers	Units	OrigDataRate	OrigDataStartFrame	OrigNumFrames
100.00	100.00	      72	5	mm	100.00	5110	      6812
Frame#	Time	Left_Front			Right_Front			Left_Aft			Right_Aft			Post			
		X1	Y1	Z1	X2	Y2	Z2	X3	Y3	Z3	X4	Y4	Z4	X5	Y5	Z5	

5110	51.090	-828.60168	26.48009	-634.22321	741.34735	27.19503	-639.50775	-736.78143	-4.09874	500.38852	705.57019	-5.66548	510.11142	-41.73164	1333.48926	-922.96698	
5111	51.100	-828.14642	26.64862	-634.08752	741.99097	27.42796	-639.62274	-735.98022	-4.33690	500.50281	706.28394	-5.88751	510.30222	-40.98462	1333.93176	-921.93402	
5112	51.110	-827.17065	26.98140	-634.06195	742.92322	27.80789	-639.63452	-735.11249	-4.61353	500.69733	707.06421	-6.11921	510.23099	-40.19700	1334.27600	-920.98749	
5113	51.120	-826.35498	27.32606	-634.02496	743.53693	28.08453	-639.40710	-734.47760	-4.69359	500.75049	707.70056	-6.42312	510.24341	-39.56790	1334.69678	-920.12823	
5114	51.130	-825.62177	27.50764	-633.83215	744.33673	28.32120	-639.36896	-733.87659	-4.78325	500.69788	708.42670	-6.64090	510.44254	-38.77247	1335.14502	-919.48584	
5115	51.140	-824.79089	27.72370	-633.54462	745.29138	28.59008	-639.22803	-733.04974	-5.10623	500.66943	709.33429	-6.66640	510.49850	-37.84551	1335.64075	-919.44537	
5116	51.150	-824.07941	28.23663	-633.79266	745.93921	28.92762	-639.42365	-732.09174	-5.43178	500.72379	710.24683	-6.93558	510.53015	-36.86171	1335.93677	-919.20502	
5117	51.160	-823.29016	28.39863	-633.67291	746.98047	29.28470	-639.22076	-731.20038	-5.66044	500.94305	711.25067	-7.07017	510.62051	-36.13046	1336.33838	-919.21875	
5118	51.170	-822.16937	28.63184	-633.62335	747.65778	29.52693	-639.13708	-730.34277	-5.87924	500.95178	712.07294	-7.29092	510.73758	-35.41875	1336.70276	-918.97406	
5119	51.180	-821.46057	29.06056	-633.63342	748.57489	29.79928	-638.97479	-729.57001	-6.01462	500.86191	712.75983	-7.53624	510.83398	-34.17018	1337.12988	-918.25122	
5120	51.190	-820.83813	29.28135	-633.49170	749.30255	29.97807	-638.98547	-728.76147	-6.05679	500.87897	713.45435	-7.68213	510.69980	-33.53855	1337.53833	-917.98529	
5121	51.200	-819.76068	29.50142	-633.54834	750.21838	30.37248	-638.90961	-727.93396	-6.32498	500.90933	714.68335	-7.95929	510.73166	-32.83303	1337.86902	-917.25470	
5122	51.210	-818.73364	29.95944	-633.51672	751.08160	30.62135	-638.83887	-726.83807	-6.44787	501.06274	715.47534	-8.14195	510.81863	-31.84395	1338.13074	-916.12744	
5123	51.220	-818.10242	30.07248	-633.32733	752.11481	30.83998	-638.62445	-726.03064	-6.82931	501.17053	716.10071	-8.25580	510.85248	-31.04980	1338.60608	-915.16077	
5124	51.230	-817.21564	30.23436	-633.35852	752.82831	31.03221	-638.60413	-725.28455	-6.99068	501.19879	717.14209	-8.53746	510.94727	-30.24793	1339.02283	-914.27435	
5125	51.240	-816.44025	30.71230	-633.25488	753.72876	31.17985	-638.62299	-724.30652	-6.98730	501.25092	718.07874	-8.64633	510.97531	-29.35869	1339.18970	-913.33691	
5126	51.250	-815.20917	30.72959	-633.15179	754.67444	31.65144	-638.49841	-723.61761	-7.09278	501.24951	718.72327	-8.80138	510.76337	-28.19287	1339.51453	-912.65765	
5127	51.260	-814.46826	30.94925	-632.92950	755.71967	31.97086	-638.36121	-722.42328	-7.24088	501.30914	719.97852	-9.02774	511.21671	-27.45648	1340.07959	-912.37604	
5128	51.270	-813.47095	31.15578	-633.00446	756.36804	32.09066	-638.45319	-721.60645	-7.55402	501.26862	720.50049	-9.11248	511.36060	-26.16287	1340.38098	-911.89777	
5129	51.280	-812.82953	31.39329	-632.91998	757.36243	32.22797	-638.39435	-720.70062	-7.88939	501.29309	721.40302	-9.32517	511.48300	-25.69153	1340.67273	-911.78271	
5130	51.290	-811.63123	31.44071	-632.75281	758.38361	32.56502	-638.26306	-719.70856	-8.02369	501.40906	722.61462	-9.54470	511.24268	-24.92864	1340.89941	-911.73938	
5131	51.300	-810.61652	31.89089	-632.82855	759.17999	32.95810	-638.14587	-718.83868	-8.13805	501.37350	723.42078	-9.65955	511.21298	-23.79541	1341.26941	-911.55969	
5132	51.310	-809.99982	32.10965	-632.64081	760.16431	33.16666	-638.18848	-718.08673	-8.07747	501.48465	724.20129	-9.87691	511.31491	-22.97983	1341.68811	-910.99921	
5133	51.320	-809.02576	32.39960	-632.69348	761.02039	33.40859	-638.16986	-717.02936	-8.36642	501.54456	725.30292	-10.06598	511.20468	-21.92420	1341.98596	-910.42291	
5134	51.330	-807.85498	32.56533	-632.65265	761.90771	33.57530	-638.22650	-715.99475	-8.64055	501.66345	726.03540	-10.23568	511.22095	-20.68952	1342.10010	-909.86414	
5135	51.340	-806.87500	32.85693	-632.70105	762.96631	33.79037	-638.09241	-715.11267	-8.78253	501.73798	727.31628	-10.39453	511.34586	-19.97123	1342.48657	-909.10541	
5136	51.350	-806.29559	33.13425	-632.59106	763.87964	33.99337	-637.98102	-713.99866	-8.93336	501.56766	727.81482	-10.46277	511.19040	-18.96319	1343.04553	-908.44037	
5137	51.360	-805.13239	33.43659	-632.48840	764.98834	34.16016	-637.72559	-713.24835	-9.00887	501.52768	728.67047	-10.69647	511.27225	-18.05581	1343.21130	-907.56708	
5138	51.370	-803.96729	33.60617	-632.72302	765.81512	34.38573	-637.99261	-712.42267	-9.06206	501.62839	730.33063	-10.80764	511.56863	-17.12581	1343.55029	-906.97748	
5139	51.380	-803.17157	33.61528	-632.30847	766.92035	34.55533	-637.94641	-711.34503	-9.35655	501.67496	730.97925	-10.81024	511.65750	-16.29974	1343.78552	-906.51917	
5140	51.390	-802.31122	34.08787	-632.39886	767.81818	34.77922	-637.75140	-710.37097	-9.60292	501.79181	731.93683	-11.16354	511.69971	-15.71776	1344.22546	-906.11200	
5141	51.400	-801.46295	34.36177	-632.38623	768.74493	34.98701	-637.59064	-709.46515	-9.84282	501.92935	732.69080	-11.32177	511.69431	-14.00812	1344.53015	-905.88226	
5142	51.410	-800.22388	34.14234	-632.34052	769.64209	35.19656	-637.71667	-708.18750	-9.82660	502.04959	733.77319	-11.43038	511.62039	-13.15746	1344.66138	-905.79016	
5143	51.420	-799.27844	34.37208	-632.15894	770.65045	35.31640	-637.72882	-707.59540	-9.90153	502.04572	734.94910	-11.60418	511.64938	-12.65708	1344.83936	-905.48187	
5144	51.430	-798.45734	34.66836	-632.19812	771.55963	35.56006	-637.67297	-706.61859	-9.96986	501.91534	735.57916	-11.65498	511.73184	-11.41252	1345.06116	-904.75873	
5145	51.440	-797.45636	34.80963	-632.16351	772.46661	35.77013	-637.49841	-705.46490	-10.17688	501.86420	736.63409	-11.79241	511.88489	-10.42560	1345.45459	-904.54089	
5146	51.450	-796.45538	34.84353	-632.02814	773.45654	36.00153	-637.60095	-704.59161	-10.38585	502.00012	737.80902	-11.91444	511.54834	-9.60088	1345.79504	-904.26251	
5147	51.460	-795.30579	35.09096	-631.99084	774.47845	36.15397	-637.45447	-703.36530	-10.57497	502.10760	738.66235	-12.05802	511.87531	-8.52010	1346.03540	-903.59546	
5148	51.470	-794.68323	35.22956	-631.96442	775.29834	36.42078	-637.56964	-702.52875	-10.72384	502.06369	739.62640	-12.18176	512.01758	-7.72574	1346.16016	-903.18988	
5149	51.480	-793.40723	35.29640	-631.99408	776.33423	36.39401	-637.47076	-701.70129	-10.67060	502.09872	740.78992	-12.37367	511.88412	-6.36509	1346.36658	-902.42529	
5150	51.490	-792.33875	35.59228	-631.83008	777.49915	36.78658	-637.25494	-700.72833	-10.68490	502.17566	741.46582	-12.40283	511.89612	-5.75936	1346.76489	-902.03015	
5151	51.500	-791.60376	35.71767	-631.71271	778.38641	36.97547	-637.35870	-699.66687	-10.91040	502.19827	742.64087	-12.64098	511.94821	-4.98512	1347.10156	-901.69562	
5152	51.510	-790.65308	35.87369	-631.85205	779.19653	37.01495	-637.42267	-698.95294	-10.95715	502.14178	743.44135	-12.75412	511.85892	-3.93121	1347.22302	-901.42792	
5153	51.520	-789.59210	36.28082	-632.06354	780.34064	37.27566	-637.23376	-697.67377	-11.30523	502.14801	744.70355	-12.82049	511.92987	-2.87134	1347.47705	-901.15546	
5154	51.530	-788.52167	36.31879	-631.80316	781.20203	37.26861	-637.26160	-696.56586	-11.49595	502.18097	745.51459	-13.03723	511.78955	-2.16503	1347.58130	-900.73517	
5155	51.540	-787.75836	36.53508	-631.37732	782.40607	37.70715	-637.17590	-695.97986	-11.50261	502.21280	746.07019	-12.94766	512.12469	-0.61014	1347.90210	-900.40271	
5156	51.550	-786.75067	36.74485	-631.57465	783.24878	37.71053	-637.20776	-694.78571	-11.57332	502.34842	747.50482	-13.15799	512.17773	0.15816	1348.15149	-900.26691	
5157	51.560	-785.79358	37.03987	-632.01233	784.19312	37.88329	-636.98578	-693.93512	-11.65342	502.39063	748.34680	-13.35139	511.97238	1.16094	1348.34387	-899.70300	
5158	51.570	-784.85547	37.05352	-631.62579	785.10754	37.99843	-636.93494	-693.08569	-11.50003	502.27463	749.38470	-13.30257	512.09131	1.94456	1348.46631	-899.54388	
5159	51.580	-783.96185	37.04020	-631.36664	786.02600	38.12990	-637.20782	-692.02997	-11.86887	502.33823	750.43988	-13.40213	512.17456	3.14462	1348.55884	-899.33862	
5160	51.590	-782.93140	37.41020	-631.71631	787.13373	38.34318	-637.01318	-690.99225	-12.00685	502.36664	751.12860	-13.51388	512.19208	4.28242	1348.62158	-898.93115	
5161	51.600	-781.96271	37.46471	-631.84229	787.87079	38.47759	-636.96313	-689.99188	-12.11196	502.35568	752.50464	-13.51174	512.13623	5.06205	1348.92383	-898.59863	
5162	51.610	-781.17157	37.38705	-631.47296	788.98102	38.60376	-636.88715	-689.07288	-12.15750	502.37262	753.11627	-13.63692	512.25171	5.63749	1349.19153	-898.49701	
5163	51.620	-780.08069	37.73979	-631.40295	789.81055	38.63667	-636.79382	-688.22601	-12.25509	502.38412	753.87665	-13.81400	512.27948	6.86778	1349.32581	-898.26581	
5164	51.630	-779.12103	37.72495	-631.56342	790.85309	38.63213	-636.84088	-687.40826	-12.13067	502.42215	754.77295	-13.91044	512.30402	7.45506	1349.58521	-898.13605	
5165	51.640	-778.32928	37.85072	-631.67200	791.61823	38.81203	-636.92596	-686.59357	-12.26573	502.39011	755.73688	-14.05643	512.10242	8.23183	1349.68628	-897.94647	
5166	51.650	-777.38275	37.79881	-631.42291	792.55023	38.89537	-636.87274	-685.61511	-12.39903	502.46515	756.79962	-14.17189	512.21082	9.45450	1349.78149	-897.50641	
5167	51.660	-776.39502	38.10513	-631.27881	793.56592	39.16700	-636.72742	-684.64612	-12.70099	502.62164	757.48767	-14.12129	512.25653	10.50464	1350.03967	-897.13721	
5168	51.670	-775.46387	38.06827	-631.37177	794.36639	39.26335	-636.77338	-683.44312	-12.81034	502.60303	758.40179	-14.20963	512.40027	11.05116	1350.20996	-897.08710	
5169	51.680	-774.76520	38.07552	-631.49414	795.46094	39.32163	-636.63239	-682.66022	-12.91992	502.55353	759.65088	-14.34038	512.31836	12.13981	1350.41724	-896.73407	
5170	51.690	-773.79053	38.10128	-631.56531	796.15869	39.40044	-636.62311	-681.89215	-12.90523	502.43042	760.43140	-14.28555	512.42334	13.26147	1350.52283	-896.21051	
5171	51.700	-772.97687	38.42203	-631.19080	796.97430	39.45088	-636.76031	-680.97327	-12.81164	502.45471	761.03156	-14.24581	512.65100	13.99111	1350.56580	-896.11865	
5172	51.710	-772.04645	38.37789	-631.14148	797.89484	39.57372	-636.82819	-680.29150	-12.78221	502.53091	762.07440	-14.47852	512.58539	14.47507	1350.70947	-895.96979	
5173	51.720	-771.23407	38.42377	-631.22467	798.80096	39.56460	-636.83594	-679.39856	-12.84741	502.61969	763.05084	-14.59268	512.39343	15.72914	1350.65759	-895.76123	
5174	51.730	-770.55103	38.51324	-631.47076	799.69183	39.69110	-636.53845	-678.49316	-12.98016	502.58331	763.63458	-14.61723	512.37439	16.77304	1350.81177	-895.54297	
5175	51.740	-769.64667	38.67194	-631.35785	800.43298	39.92062	-636.57336	-677.62671	-13.02370	502.61987	764.58673	-14.55854	512.32159	17.13296	1350.91077	-895.60944	
5176	51.750	-768.63348	38.51954	-631.20209	801.26074	39.86316	-636.73914	-676.64691	-13.16334	502.67313	765.53094	-14.72005	512.28882	17.79611	1350.97583	-895.71271	
5177	51.760	-767.73254	38.55133	-631.14984	802.01434	39.78053	-636.73572	-675.91223	-13.29490	502.53183	766.36871	-14.67340	512.20319	19.04593	1351.08862	-895.53046	
5178	51.770	-767.16290	38.77880	-631.25494	802.87756	39.86605	-636.69843	-675.12836	-13.25882	502.43286	767.04230	-14.61227	512.31909	20.23272	1351.13220	-895.45563	
5179	51.780	-766.43585	38.87415	-631.24951	803.53577	39.88257	-636.75610	-674.41010	-13.37294	502.54208	767.79462	-14.76911	512.08038	20.55873	1351.13123	-895.49023	
5180	51.790	-765.61743	38.86415	-631.10248	804.40436	39.99533	-636.73413	-673.67761	-13.38887	502.58868	768.65143	-14.87629	512.42157	21.05378	1351.28455	-895.42438	
5181	51.800	-764.63812	38.77774	-631.13519	805.33435	40.23788	-636.63824	-672.78241	-13.22021	502.63782	769.28650	-14.89368	512.26971	22.08342	1351.39990	-895.12457	
